# xmcd
#
# Track frame offsets:
#	150
#	11600
#	26239
#	37966
#	49961
#	63410
#	81753
#	90910
#	103307
#	113157
#
# Disc length: 1680 seconds
#
# Revision: 0
# Processed by: cddbd v1.5.2PL0 Copyright (c) Steve Scherf et al.
# Submitted via: EasyCDDAExtractor 10.2.0.1
#
DISCID=7a068e0a
DTITLE=Marvin Morrow - Back To The Old Home Place
DYEAR=2001
DGENRE=Gospel
TTITLE0=Back To The Old Home Place
TTITLE1=Gold Can't Make You Rich
TTITLE2=Behold The Lamb The Man The King
TTITLE3=Farside Banks Of Jordan
TTITLE4=Leaning On the Everlasting Arms
TTITLE5=Oh Sinner Don't Wait
TTITLE6=The Old Time Way
TTITLE7=Oh What Joy Awaits me
TTITLE8=Lord Lean On Me
TTITLE9=Over Jordan
EXTD=
EXTT0=
EXTT1=
EXTT2=
EXTT3=
EXTT4=
EXTT5=
EXTT6=
EXTT7=
EXTT8=
EXTT9=
PLAYORDER=
